<svg width="16" height="20" viewBox="0 0 16 20" fill="none" xmlns="http://www.w3.org/2000/svg">
<path opacity="0.2" d="M15.158 9.39737C15.158 9.96925 14.9604 10.5283 14.5903 11.0038C14.2202 11.4793 13.6942 11.8499 13.0787 12.0688C12.4633 12.2876 11.7861 12.3449 11.1327 12.2333C10.4794 12.1217 9.87921 11.8464 9.40816 11.442C8.93712 11.0376 8.61633 10.5224 8.48637 9.96147C8.35641 9.40058 8.42311 8.81919 8.67804 8.29084C8.93297 7.76249 9.36467 7.3109 9.91856 6.99317C10.4725 6.67545 11.1237 6.50587 11.7898 6.50587C12.6831 6.50587 13.5398 6.81051 14.1715 7.35277C14.8031 7.89503 15.158 8.6305 15.158 9.39737ZM4.21145 6.50587H8.42165V0.72287H4.21145C3.31816 0.72287 2.46146 1.02751 1.8298 1.56977C1.19815 2.11203 0.843292 2.8475 0.843292 3.61437C0.843292 4.38124 1.19815 5.11671 1.8298 5.65897C2.46146 6.20123 3.31816 6.50587 4.21145 6.50587ZM0.843292 15.5418C0.843292 16.4045 1.24251 17.2319 1.95312 17.842C2.66373 18.452 3.62752 18.7947 4.63247 18.7947C5.63742 18.7947 6.60122 18.452 7.31183 17.842C8.02244 17.2319 8.42165 16.4045 8.42165 15.5418V12.2889H4.63247C3.62752 12.2889 2.66373 12.6316 1.95312 13.2416C1.24251 13.8517 0.843292 14.6791 0.843292 15.5418Z" fill="black"/>
<path d="M14.3159 6.50587C15.0228 6.05072 15.545 5.41615 15.8085 4.69206C16.072 3.96798 16.0634 3.19107 15.7839 2.47141C15.5045 1.75174 14.9684 1.1258 14.2515 0.682241C13.5347 0.238684 12.6734 0 11.7898 0H4.21144C3.32779 0 2.46655 0.238684 1.74969 0.682241C1.03284 1.1258 0.496729 1.75174 0.217295 2.47141C-0.0621387 3.19107 -0.0707266 3.96798 0.192748 4.69206C0.456223 5.41615 0.978403 6.05072 1.68532 6.50587C1.15008 6.85023 0.71811 7.29911 0.425192 7.81533C0.132275 8.33155 -0.0131596 8.90025 0.000934989 9.47434C0.0150295 10.0484 0.188247 10.6114 0.506241 11.1165C0.824235 11.6217 1.27785 12.0545 1.82952 12.3792C1.20203 12.7888 0.706689 13.3291 0.390404 13.9489C0.0741194 14.5687 -0.0526429 15.2476 0.0221202 15.9213C0.0968832 16.5949 0.370697 17.2411 0.817635 17.7985C1.26457 18.3559 1.86984 18.8061 2.57614 19.1066C3.28243 19.4071 4.06637 19.5478 4.85372 19.5155C5.64108 19.4831 6.40579 19.2788 7.07545 18.9218C7.74511 18.5649 8.29757 18.0671 8.68049 17.4756C9.06342 16.8841 9.26415 16.2185 9.26368 15.5418V12.2889C9.70599 12.5737 10.2093 12.7809 10.7449 12.8987C11.2805 13.0165 11.8379 13.0425 12.3852 12.9754C12.9325 12.9083 13.4591 12.7493 13.9349 12.5075C14.4106 12.2656 14.8262 11.9457 15.158 11.566C15.4897 11.1863 15.7311 10.7542 15.8683 10.2944C16.0055 9.8346 16.0359 9.3561 15.9577 8.88622C15.8795 8.41635 15.6943 7.96429 15.4126 7.55587C15.1309 7.14745 14.7582 6.79066 14.3159 6.50587ZM14.3159 3.61437C14.3159 4.18953 14.0498 4.74113 13.576 5.14782C13.1023 5.55452 12.4598 5.783 11.7898 5.783H9.26368V1.44575H11.7898C12.4598 1.44575 13.1023 1.67423 13.576 2.08093C14.0498 2.48762 14.3159 3.03922 14.3159 3.61437ZM1.68532 3.61437C1.68532 3.03922 1.95146 2.48762 2.4252 2.08093C2.89894 1.67423 3.54147 1.44575 4.21144 1.44575H7.5796V5.783H4.21144C3.54147 5.783 2.89894 5.55452 2.4252 5.14782C1.95146 4.74113 1.68532 4.18953 1.68532 3.61437ZM4.21144 11.566C3.54147 11.566 2.89894 11.3375 2.4252 10.9308C1.95146 10.5241 1.68532 9.97253 1.68532 9.39737C1.68532 8.82222 1.95146 8.27062 2.4252 7.86392C2.89894 7.45723 3.54147 7.22875 4.21144 7.22875H7.5796V11.566H4.21144ZM7.5796 15.5418C7.5796 16.0422 7.40675 16.5314 7.08292 16.9474C6.75908 17.3635 6.2988 17.6878 5.76028 17.8793C5.22176 18.0708 4.62919 18.1209 4.0575 18.0233C3.48581 17.9256 2.96068 17.6847 2.54852 17.3308C2.13635 16.977 1.85567 16.5262 1.74195 16.0354C1.62823 15.5446 1.6866 15.0359 1.90966 14.5736C2.13272 14.1113 2.51046 13.7161 2.99512 13.4381C3.47977 13.1601 4.04957 13.0117 4.63246 13.0117H7.5796V15.5418ZM11.7898 11.566C11.2902 11.566 10.8018 11.4388 10.3864 11.2005C9.97095 10.9622 9.64717 10.6235 9.45597 10.2273C9.26477 9.83101 9.21475 9.39497 9.31222 8.9743C9.40969 8.55362 9.65028 8.16721 10.0036 7.86392C10.3568 7.56064 10.807 7.35409 11.297 7.27042C11.787 7.18674 12.2949 7.22969 12.7565 7.39383C13.2181 7.55796 13.6126 7.83592 13.8902 8.19255C14.1678 8.54918 14.3159 8.96846 14.3159 9.39737C14.3159 9.97253 14.0498 10.5241 13.576 10.9308C13.1023 11.3375 12.4598 11.566 11.7898 11.566Z" fill="black"/>
</svg>
